<?xml version="1.0" standalone="no"?><!DOCTYPE svg PUBLIC "-//W3C//DTD SVG 1.1//EN" "http://www.w3.org/Graphics/SVG/1.1/DTD/svg11.dtd"><svg t="1587864403892" class="icon" viewBox="0 0 1024 1024" version="1.1" xmlns="http://www.w3.org/2000/svg" p-id="1569" xmlns:xlink="http://www.w3.org/1999/xlink" width="200" height="200"><defs><style type="text/css"></style></defs><path d="M510.099 1023.078h-0.085a39.996 39.996 0 0 1-35.906-22.551L241.382 520.553c-9.638-19.877-1.337-43.805 18.541-53.444 19.876-9.638 43.806-1.337 53.443 18.541l196.926 406.145 199.141-406.297c9.725-19.838 33.688-28.035 53.522-18.313 19.837 9.724 28.036 33.686 18.313 53.521l-235.253 479.977a40 40 0 0 1-35.916 22.395z" fill="#1C86E5" p-id="1570"></path><path d="M706.059 131.125c-13.591-33.025-35.612-62.479-63.808-84.85C605.393 17.029 559.135 0.922 512 0.922s-93.392 16.106-130.25 45.351c-28.2 22.375-50.223 51.837-63.813 84.87-104.204 12.107-185.359 100.892-185.359 208.29 0 115.635 94.076 209.711 209.711 209.711 47.136 0 93.395-16.105 130.254-45.352 15.021-11.918 28.283-25.852 39.459-41.259 11.175 15.406 24.438 29.34 39.456 41.258 36.859 29.246 83.117 45.353 130.253 45.353 115.636 0 209.712-94.077 209.712-209.711-0.001-107.4-81.16-196.202-185.364-208.308zM681.71 469.143c-59.817 0-111.598-40.492-125.922-98.47-4.168-16.875-18.48-28.57-34.84-30.211a40.304 40.304 0 0 0-4.261-1.257c-21.509-5.042-43.03 8.312-48.069 29.819-0.085 0.364-0.176 0.727-0.267 1.089l-0.14 0.563c-14.324 57.975-66.104 98.466-125.924 98.466-71.522 0-129.711-58.188-129.711-129.711 0-71.523 58.188-129.711 129.711-129.711 1.252 0 2.534 0.019 3.809 0.055h0.003c37.345 1.072 72.442 18.263 96.294 47.165 14.063 17.039 39.273 19.453 56.312 5.391 9.584-7.91 14.541-19.347 14.541-30.874a39.837 39.837 0 0 0-9.15-25.438 209.923 209.923 0 0 0-100.308-67.089c23.468-35.493 63.604-58.009 108.211-58.009 59.817 0 111.598 40.492 125.92 98.469 4.514 18.273 21.16 30.923 39.971 30.391 1.453-0.042 2.703-0.062 3.82-0.062 71.522 0 129.712 58.188 129.712 129.711 0 71.525-58.188 129.713-129.712 129.713z" fill="#80E1FF" p-id="1571"></path></svg>